Coordinates
version=1
nRows=32
nColumns=22
inDegrees=yes

Units are S.I. units (second, meters, Newtons, ...)
If the header above contains a line with 'inDegrees', this indicates whether rotational values are in degrees (yes) or radians (no).

endheader
time	pelvis_tilt	pelvis_list	pelvis_rotation	pelvis_tx	pelvis_ty	pelvis_tz	hip_flexion_r	hip_adduction_r	hip_rotation_r	knee_angle_r	ankle_angle_r	subtalar_angle_r	hip_flexion_l	hip_adduction_l	hip_rotation_l	knee_angle_l	ankle_angle_l	subtalar_angle_l	lumbar_extension	lumbar_bending	lumbar_rotation
      4.37000000	     -4.40341436	     -2.96973823	    -87.38701401	      0.02637534	      1.01596756	      0.86884356	      9.76252715	      9.50346757	     -5.00929869	    -20.19903912	      6.64986938	     -7.77378514	     15.18665165	     -6.86450128	     -1.04841216	    -44.72302142	     13.90889917	      4.34736218	    -10.72260539	      4.37002618	      5.15999889
      4.38000000	     -4.41963043	     -2.89303186	    -87.50805429	      0.02661510	      1.01614097	      0.87147260	      9.59970926	      9.52400570	     -4.85891927	    -20.07438213	      6.70382848	     -7.73315482	     15.37622872	     -6.78577223	     -0.75798053	    -43.53101418	     14.34472378	      4.27270945	    -10.64775813	      4.35752479	      5.18813047
      4.39000000	     -4.40105937	     -2.88914260	    -87.67331910	      0.02685670	      1.01648396	      0.87409253	      9.34130532	      9.50719589	     -4.70547296	    -19.92812787	      6.81049469	     -7.59764913	     15.39903843	     -6.68253773	     -0.55607226	    -42.24777303	     14.76443887	      4.05105716	    -10.65918009	      4.30451672	      5.29442345
      4.40000000	     -4.39595167	     -2.86915997	    -87.82420164	      0.02715566	      1.01682264	      0.87659927	      9.09441052	      9.50372984	     -4.52423940	    -19.75327479	      6.86450242	     -7.48279088	     15.40528957	     -6.57001813	     -0.30890882	    -40.93716292	     15.13699171	      3.96804892	    -10.65802694	      4.27364157	      5.35893178
      4.41000000	     -4.37773352	     -2.83824575	    -87.99085574	      0.02748645	      1.01715872	      0.87906220	      8.85808671	      9.47743565	     -4.37209455	    -19.57239595	      6.92643344	     -7.39083534	     15.36674090	     -6.44221936	     -0.10715871	    -39.58720673	     15.50875427	      4.00085578	    -10.64368955	      4.23021585	      5.43477397
      4.42000000	     -4.35625350	     -2.81918728	    -88.16637041	      0.02782954	      1.01752763	      0.88146422	      8.59973221	      9.44729717	     -4.20537425	    -19.36726762	      6.97727221	     -7.29468968	     15.26217146	     -6.30443554	      0.08309306	    -38.20526114	     15.83731086	      4.10915812	    -10.64427010	      4.18120649	      5.50944261
      4.43000000	     -4.33512062	     -2.81782786	    -88.35452804	      0.02820680	      1.01793300	      0.88382065	      8.31232373	      9.41497955	     -4.03134710	    -19.13889720	      7.02747362	     -7.18906254	     15.08422692	     -6.16226092	      0.24802251	    -36.80035686	     16.09321609	      4.29147625	    -10.66716705	      4.13835481	      5.59226959
      4.44000000	     -4.32082011	     -2.82394989	    -88.54904544	      0.02859647	      1.01833740	      0.88612623	      8.01347974	      9.38701754	     -3.85745129	    -18.89628391	      7.07227331	     -7.07753826	     14.85199688	     -6.02768276	      0.38213696	    -35.39092559	     16.26653125	      4.52573849	    -10.69787752	      4.10009492	      5.67333789
      4.45000000	     -4.32874066	     -2.84380800	    -88.74924110	      0.02901870	      1.01874006	      0.88838953	      7.69586708	      9.37869042	     -3.68383542	    -18.63999674	      7.11601240	     -6.95033632	     14.56107186	     -5.91679366	      0.48545955	    -33.98671357	     16.34053295	      4.79628324	    -10.74256675	      4.09325620	      5.75179418
      4.46000000	     -4.33354167	     -2.85573756	    -88.95756711	      0.02944735	      1.01909871	      0.89063514	      7.38947161	      9.36026259	     -3.53349132	    -18.38617773	      7.15636685	     -6.81672890	     14.23284353	     -5.81441612	      0.50682721	    -32.59581833	     16.30353928	      5.03546865	    -10.77052715	      4.07925930	      5.81817190
      4.47000000	     -4.34442660	     -2.86340486	    -89.17337007	      0.02989237	      1.01941033	      0.89284706	      7.09683218	      9.34235310	     -3.39447364	    -18.14645018	      7.20269438	     -6.67701025	     13.86768336	     -5.72667706	      0.45940501	    -31.23031544	     16.11612420	      5.20257835	    -10.78816026	      4.07143887	      5.88491257
      4.48000000	     -4.35418173	     -2.85523921	    -89.39258940	      0.03034822	      1.01965263	      0.89502967	      6.83449798	      9.31771996	     -3.27312762	    -17.92823156	      7.25342863	     -6.54010437	     13.48509358	     -5.64992646	      0.32121415	    -29.90928494	     15.75161314	      5.26074894	    -10.78110969	      4.05915788	      5.93984777
      4.49000000	     -4.39308119	     -2.87641961	    -89.60436016	      0.03084567	      1.01989702	      0.89719378	      6.53760959	      9.32234714	     -3.13809321	    -17.70269492	      7.31557362	     -6.37097026	     13.03526953	     -5.60689935	      0.14519276	    -28.63529036	     15.26616514	      5.16930196	    -10.79924339	      4.08439589	      5.97614928
      4.50000000	     -4.43122046	     -2.88427864	    -89.80907171	      0.03137327	      1.02007696	      0.89933551	      6.27195554	      9.32096003	     -3.02113244	    -17.50607984	      7.39521742	     -6.20671921	     12.57723590	     -5.57298969	     -0.11195584	    -27.43904617	     14.61654455	      4.88348726	    -10.79364891	      4.10837856	      5.98773700
      4.51000000	     -4.46859888	     -2.88986223	    -89.99996573	      0.03194782	      1.02021543	      0.90145461	      6.02408102	      9.31510419	     -2.91389582	    -17.33505480	      7.49041609	     -6.04659253	     12.10394078	     -5.54432712	     -0.42775579	    -26.33213648	     13.86510867	      4.39514105	    -10.77513525	      4.13447035	      5.96904575
      4.52000000	     -4.50277320	     -2.88750074	    -90.17014323	      0.03258098	      1.02031362	      0.90355578	      5.79934916	      9.30184973	     -2.81990472	    -17.18604003	      7.58011760	     -5.89680556	     11.62806746	     -5.51565875	     -0.77285785	    -25.32700822	     13.08289198	      3.73294372	    -10.73607377	      4.16083411	      5.90847372
      4.53000000	     -4.52379437	     -2.88015268	    -90.32560591	      0.03324438	      1.02037753	      0.90561960	      5.60649832	      9.27504156	     -2.72537652	    -17.08339309	      7.72785979	     -5.78332942	     11.15687444	     -5.48244173	     -1.15348531	    -24.43622291	     12.34172326	      3.03720505	    -10.68461089	      4.17249108	      5.82185030
      4.54000000	     -4.52915906	     -2.86792502	    -90.44751455	      0.03397820	      1.02043851	      0.90765898	      5.43300193	      9.22901258	     -2.65185901	    -16.99666875	      7.84091917	     -5.69275678	     10.69435381	     -5.43517897	     -1.51856215	    -23.64835289	     11.71944412	      2.33339173	    -10.61773470	      4.17354656	      5.67932808
      4.55000000	     -4.50700131	     -2.85237850	    -90.53649751	      0.03474884	      1.02050764	      0.90967771	      5.28398584	      9.15570412	     -2.58959716	    -16.94257623	      7.95620019	     -5.64177550	     10.24486533	     -5.36610705	     -1.86971903	    -22.95298536	     11.24577839	      1.76082514	    -10.53474833	      4.14277104	      5.48965015
      4.56000000	     -4.45311724	     -2.83729497	    -90.59852852	      0.03556288	      1.02061524	      0.91166544	      5.15272488	      9.04791380	     -2.54902647	    -16.91323882	      8.06647419	     -5.62686764	      9.80018148	     -5.26707711	     -2.18029448	    -22.31726875	     10.92179682	      1.34761474	    -10.44648854	      4.07857127	      5.26276415
      4.57000000	     -4.36790339	     -2.80879443	    -90.62556161	      0.03641573	      1.02075401	      0.91362793	      5.04798501	      8.90675736	     -2.53892951	    -16.89742021	      8.17416127	     -5.64203306	      9.38083819	     -5.13837975	     -2.44393881	    -21.72404874	     10.68598127	      1.13081728	    -10.33447900	      3.97815402	      5.00085598
      4.58000000	     -4.25600176	     -2.82772420	    -90.61483346	      0.03730152	      1.02102838	      0.91556813	      4.88410099	      8.74221698	     -2.51661431	    -16.86166116	      8.24879101	     -5.68134683	      8.92268090	     -4.98538782	     -2.67803345	    -21.15656719	     10.54370475	      0.97529217	    -10.27565833	      3.84604824	      4.65623347
      4.59000000	     -4.11606329	     -2.83131088	    -90.57151776	      0.03823017	      1.02133951	      0.91749054	      4.73694017	      8.54609290	     -2.52772696	    -16.81988655	      8.32028272	     -5.73045452	      8.48805267	     -4.79974290	     -2.85569078	    -20.59434274	     10.43280235	      0.96549274	    -10.19182939	      3.68300945	      4.29280971
      4.60000000	     -3.95492355	     -2.78848985	    -90.49947232	      0.03918586	      1.02163005	      0.91935526	      4.64743508	      8.32787245	     -2.54766801	    -16.78597298	      8.37163949	     -5.75989970	      8.11495447	     -4.58659163	     -2.97066743	    -20.03519156	     10.33252346	      1.01153557	    -10.05445666	      3.49530981	      3.89778376
      4.61000000	     -3.81272923	     -2.85206215	    -90.37951277	      0.04020069	      1.02213028	      0.92125421	      4.38927156	      8.12773377	     -2.61800168	    -16.65188111	      8.42398505	     -5.81290261	      7.62949017	     -4.39179689	     -3.06061915	    -19.46498736	     10.25739003	      1.10984050	    -10.03931832	      3.33086637	      3.46207319
      4.62000000	     -3.66979567	     -2.82273105	    -90.23319478	      0.04124319	      1.02249844	      0.92306957	      4.24179102	      7.92451495	     -2.71013833	    -16.52867669	      8.46793768	     -5.82364998	      7.26145203	     -4.18700202	     -3.07961199	    -18.90350023	     10.15848545	      1.18181247	     -9.92088687	      3.16872735	      3.02219399
      4.63000000	     -3.55221296	     -2.80951828	    -90.05074014	      0.04232579	      1.02288417	      0.92482976	      4.05681557	      7.74834678	     -2.81785542	    -16.36228873	      8.48948172	     -5.81654883	      6.89153796	     -4.00210432	     -3.04468674	    -18.35064706	     10.07781433	      1.23982331	     -9.83171052	      3.04018415	      2.54813267
      4.64000000	     -3.45569978	     -2.78387966	    -89.84894489	      0.04345369	      1.02323330	      0.92652713	      3.87373199	      7.59172711	     -2.93772867	    -16.16777076	      8.50415763	     -5.78903990	      6.54622941	     -3.83205675	     -2.97270395	    -17.80315165	      9.99540032	      1.26234613	     -9.74082225	      2.94542321	      2.07634009
      4.65000000	     -3.37420418	     -2.75282833	    -89.64257456	      0.04459901	      1.02354823	      0.92820128	      3.68449136	      7.45054286	     -3.06207085	    -15.95039860	      8.51712202	     -5.74687825	      6.21084749	     -3.67209787	     -2.87805421	    -17.25846178	      9.90905108	      1.24616005	     -9.64814866	      2.87207667	      1.61872665
      4.66000000	     -3.30620430	     -2.75283132	    -89.44708061	      0.04573798	      1.02387944	      0.92985131	      3.44826036	      7.32600257	     -3.17065871	    -15.70698615	      8.53084910	     -5.68985111	      5.84132939	     -3.52540797	     -2.78871139	    -16.71319120	      9.83815919	      1.17430435	     -9.60270559	      2.81656794	      1.18616801
      4.67000000	     -3.23503068	     -2.71015092	    -89.27421768	      0.04688864	      1.02411192	      0.93145999	      3.26571897	      7.19286072	     -3.29694569	    -15.47272865	      8.55816903	     -5.65193990	      5.52116307	     -3.37094675	     -2.70226653	    -16.17413770	      9.72666634	      1.11235689	     -9.51481621	      2.76394234	      0.81930948
      4.68000000	     -3.16886752	     -2.71021714	    -89.12574443	      0.04801489	      1.02436734	      0.93305249	      3.02807831	      7.06894566	     -3.39120648	    -15.22296218	      8.58794637	     -5.61520682	      5.16159858	     -3.22554321	     -2.64112686	    -15.65433163	      9.64787048	      1.00535311	     -9.48283144	      2.71769611	      0.49159979
